<?xml version="1.0" encoding="utf-8"?>
<!-- Generator: Adobe Illustrator 21.1.0, SVG Export Plug-In . SVG Version: 6.00 Build 0)  -->
<svg version="1.1" id="Layer_1" xmlns="http://www.w3.org/2000/svg" xmlns:xlink="http://www.w3.org/1999/xlink" x="0px" y="0px"
	 viewBox="0 0 51.8 51.8" style="enable-background:new 0 0 51.8 51.8;" xml:space="preserve">
<g>
	<g>
		<path d="M25.9,50.8C12.2,50.8,1,39.6,1,25.9S12.2,1,25.9,1s24.9,11.1,24.9,24.9S39.6,50.8,25.9,50.8z M25.9,3
			C13.2,3,3,13.2,3,25.9s10.3,22.9,22.9,22.9s22.9-10.3,22.9-22.9S38.6,3,25.9,3z"/>
	</g>
</g>
<path id="Rectangle" d="M25.9,15.4L25.9,15.4c1.2,0,2.1,1,2.1,2.1v16.7c0,1.2-1,2.1-2.1,2.1l0,0c-1.2,0-2.1-1-2.1-2.1V17.6
	C23.8,16.4,24.7,15.4,25.9,15.4z"/>
<path id="Rectangle-Copy-3_1_" d="M36.4,25.9L36.4,25.9c0,1.2-1,2.1-2.1,2.1H17.6c-1.2,0-2.1-1-2.1-2.1l0,0c0-1.2,1-2.1,2.1-2.1
	h16.7C35.4,23.8,36.4,24.7,36.4,25.9z"/>
</svg>
