<?xml version="1.0" encoding="utf-8"?>
<!-- Generator: Adobe Illustrator 21.1.0, SVG Export Plug-In . SVG Version: 6.00 Build 0)  -->
<svg version="1.1" id="Layer_1" xmlns="http://www.w3.org/2000/svg" xmlns:xlink="http://www.w3.org/1999/xlink" x="0px" y="0px"
	 viewBox="0 0 51.8 51.8" style="enable-background:new 0 0 51.8 51.8;" xml:space="preserve">
<g>
	<g>
		<path d="M25.9,51.1C12,51.1,0.7,39.8,0.7,25.9S12,0.7,25.9,0.7S51.1,12,51.1,25.9S39.8,51.1,25.9,51.1z M25.9,2.6
			C13,2.6,2.6,13,2.6,25.9S13,49.2,25.9,49.2s23.3-10.4,23.3-23.3S38.8,2.6,25.9,2.6z"/>
	</g>
</g>
<path id="Rectangle-Copy-3_1_" d="M36.5,25.9L36.5,25.9c0,1.2-1,2.1-2.1,2.1H17.4c-1.2,0-2.1-1-2.1-2.1l0,0c0-1.2,1-2.1,2.1-2.1
	h16.9C35.5,23.8,36.5,24.7,36.5,25.9z"/>
</svg>
